<svg height="512pt" viewBox="-1 0 512 512.0008" width="512pt" xmlns="http://www.w3.org/2000/svg"><g fill-rule="evenodd"><path d="m394.003906 149.589844 20.171875 10.792968 8.265625 4.421876c.609375.320312 1.222656.609374 1.835938.84375 8.03125 3.171874 17.402344-.117188 21.59375-7.914063 4.484375-8.378906 1.28125-18.910156-7.101563-23.390625l-3.726562-2.007812-9.546875-5.117188-1.714844-.933594-7.859375-4.1875-8.003906-4.308594-8.5-4.535156-4.335938-2.328125c-8.382812-4.480469-18.917969-1.28125-23.402343 7.097657-4.511719 8.378906-1.308594 18.910156 7.074218 23.390624l.320313.175782zm0 0" fill="#ffd89e"/><path d="m415.921875 122.097656 7.859375 4.1875 1.71875.929688 9.546875 5.121094 52.765625-78c7.453125-11.023438 4.308594-25.601563-4.859375-34.878907-2.125-2.183593-4.628906-4.074219-7.363281-5.527343-12.078125-6.488282-27.824219-4.21875-36.324219 5.527343-1.6875 1.917969-3.085937 4.160157-4.105469 6.691407l-35.742187 87.101562 8.5 4.539062zm0 0" fill="#ffc15a"/><path d="m339.664062 501.730469c117.007813 0 159.0625-58.449219 159.0625-147.765625v-33.777344c0-11.140625-7.683593-28.394531-31.578124-28.394531h-425.265626c-9.429687 0-16.359374 2.679687-21.277343 6.605469-7.507813 6.050781-10.332031 15.039062-10.332031 21.789062v33.777344c0 24.699218 3.199218 47.042968 10.332031 66.421875 18.65625 50.734375 64.089843 81.34375 148.761719 81.34375zm0 0" fill="#ff6977"/><path d="m240.441406 364.292969c0 34.097656 40.75 33.488281 45.433594 9.050781.175781-.847656.292969-1.71875.351562-2.648438.113282-1.28125.113282-2.648437.027344-4.074218 1.367188-18.878906 18.917969-20.683594 28.554688-12.597656 3.636718 3.054687 6.140625 7.535156 6.226562 13.035156 0 4.132812 1.601563 7.679687 4.105469 10.445312 9.632813 10.648438 32.859375 9.6875 32.859375-14.957031v-70.753906h-117.558594zm0 0" fill="#ffe6c0"/></g><path d="m467.148438 281.523438h-44.519532c6.578125-37.21875 9.851563-79.871094 11.316406-104.609376 8.589844-1.0625 16.566407-6.128906 20.984376-14.332031 3.460937-6.476562 4.191406-13.929687 2.042968-20.988281-1.433594-4.734375-4.046875-8.894531-7.558594-12.164062l46.910157-69.339844c5.605469-8.296875 7.304687-18.472656 4.785156-28.648438-2.769531-11.195312-10.5-21.128906-20.667969-26.566406-10.191406-5.464844-22.757812-6.394531-33.609375-2.492188-9.863281 3.546876-17.382812 10.601563-21.171875 19.863282l-31.710937 77.277344c-12.058594-3.175782-25.191407 2.183593-31.3125 13.628906-3.480469 6.464844-4.226563 13.914062-2.09375 20.972656.761719 2.535156 1.867187 4.902344 3.261719 7.058594-29.210938 25.402344-92.246094 82.453125-110.910157 117.277344-4.136719 7.730468-7.394531 15.453124-9.734375 23.058593h-2.707031c-.003906 0-.007813 0-.011719 0s-.007812 0-.011718 0h-67.136719c-5.671875 0-10.269531 4.597657-10.269531 10.273438 0 5.671875 4.597656 10.269531 10.269531 10.269531h56.875v62.226562c0 14.765626 6.390625 26.726563 17.535156 32.824219 4.933594 2.699219 10.488281 4.039063 16.050781 4.039063 6.40625 0 12.820313-1.773438 18.3125-5.289063 9.816406-6.289062 15.066406-16.863281 14.484375-29.109375.714844-7.167968 4.582031-7.054687 6.066407-7.015625 3.332031.09375 8.054687 2.460938 8.148437 7.429688.113281 16.730469 15.292969 27.058593 29.347656 27.058593h.058594c13.535156-.027343 28.101563-9.953124 28.101563-31.679687v-60.480469h1.828124.0625.039063 39.96875.089844 56.886719c20.710937 0 21.308593 16.265625 21.308593 18.121094v33.777344c0 44.839844-10.710937 77.617187-32.738281 100.199218-24.128906 24.746094-63.179688 37.289063-116.054688 37.289063h-170.296874c-52.882813 0-91.933594-12.546875-116.074219-37.289063-22.035157-22.585937-32.75-55.363281-32.75-100.199218v-33.777344c0-1.855469.597656-18.121094 21.339843-18.121094h48.75c5.671876 0 10.273438-4.601562 10.273438-10.273437s-4.597656-10.273438-10.273438-10.273438h-48.75c-30.730468 0-41.882812 23.125-41.882812 38.667969v33.777344c0 104.863281 56.980469 158.035156 169.367188 158.035156h170.296874c112.363282 0 169.335938-53.171875 169.335938-158.035156v-33.777344c0-15.542969-11.144531-38.664062-41.851562-38.664062zm-81.859376 0c9.292969-24.269532 18.582032-52.410157 26.046876-76.242188-1.941407 23.300781-4.972657 51.316406-9.582032 76.242188zm-27.277343 0c-.003907 0-.007813 0-.011719 0s-.003906 0-.007812 0h-43.6875c15.554687-32.550782 55.03125-83.722657 82.464843-118.804688l5.199219 2.78125c-8.039062 27.183594-23.695312 78.175781-38.730469 116.023438zm86.65625-251.484376c2-4.890624 6.058593-7.222656 9.113281-8.320312 5.472656-1.96875 11.808594-1.492188 16.964844 1.269531 5.128906 2.742188 9.027344 7.75 10.421875 13.390625.78125 3.152344 1.09375 7.832032-1.863281 12.203125l-47.582032 70.332031-19.28125-10.339843zm-63.929688 92.828126c1.25-2.335938 3.738281-3.683594 6.265625-3.683594 1.101563 0 2.210938.253906 3.230469.796875l4.28125 2.296875c.035156.015625.070313.035156.101563.054687l39.3125 21.070313c1.632812.875 2.839843 2.351562 3.386718 4.160156.550782 1.804688.371094 3.695312-.488281 5.300781-1.84375 3.425781-6.105469 4.71875-9.527344 2.890625-.003906-.003906-.007812-.003906-.011719-.007812l-5.890624-3.152344-37.804688-20.238281c-1.636719-.875-2.839844-2.355469-3.382812-4.160157-.542969-1.796874-.359376-3.679687.527343-5.328124zm-109.734375 145.296874c13.617188-25.40625 58.5-69.535156 100.449219-106.386718-30.355469 39.074218-67.03125 88.105468-79.535156 119.746094h-27.042969c1.679688-4.402344 3.722656-8.863282 6.128906-13.359376zm76.726563 94.382813c0 7.382813-2.558594 11.128906-7.601563 11.140625-.003906 0-.011718 0-.015625 0-3.59375 0-8.785156-2.371094-8.804687-6.671875 0-.035156 0-.070313-.003906-.105469-.242188-16.847656-14.480469-27.316406-28.101563-27.707031-12.558594-.355469-25.839844 7.753906-27.195313 26.683594-.035156.480469-.035156.960937 0 1.441406.4375 6.351563-2.488281 9.617187-5.019531 11.238281-3.964843 2.539063-9.359375 2.753906-13.425781.527344-5.660156-3.097656-6.851562-9.757812-6.851562-14.800781v-62.226563h.289062c.015625 0 .03125.003906.042969.003906.019531 0 .039062-.003906.058593-.003906h48.25.054688 48.320312v60.480469zm0 0"/><path d="m131.964844 302.066406h.203125c5.671875 0 10.273437-4.597656 10.273437-10.273437 0-5.671875-4.597656-10.269531-10.273437-10.269531h-.203125c-5.671875 0-10.273438 4.597656-10.273438 10.269531 0 5.675781 4.597656 10.273437 10.273438 10.273437zm0 0"/></svg>