<svg xmlns="http://www.w3.org/2000/svg" data-name="Layer 1" viewBox="0 0 100 125" x="0px" y="0px"><title>Food 1</title><path d="M59.07,50.77a1.5,1.5,0,0,1-1.39-2.06l9.74-24.37a1.5,1.5,0,0,1,2.79,1.11L60.47,49.83A1.5,1.5,0,0,1,59.07,50.77Z"/><path d="M63.73,76.6H32.79a14.37,14.37,0,0,1-11.33-4.8c-6.81-7.77-5-22.12-4.91-22.73A1.5,1.5,0,0,1,18,47.77H78.49A1.5,1.5,0,0,1,80,49.07c.08.61,1.88,15-4.94,22.73A14.35,14.35,0,0,1,63.73,76.6ZM19.4,50.77c-.26,3.56-.5,13.56,4.32,19.06a11.35,11.35,0,0,0,9.07,3.77H63.73a11.33,11.33,0,0,0,9.06-3.77c4.83-5.51,4.6-15.5,4.34-19.06Z"/><path d="M63.37,50.77a1.5,1.5,0,0,1-1.06-2.56L81.16,29.37a1.5,1.5,0,1,1,2.12,2.12L64.43,50.33A1.5,1.5,0,0,1,63.37,50.77Z"/><path d="M29.85,71.59a1.49,1.49,0,0,1-.68-.17c-3.6-1.84-6.08-5.91-7.19-11.77a1.5,1.5,0,1,1,2.95-.56c.65,3.43,2.15,7.89,5.61,9.66a1.5,1.5,0,0,1-.69,2.84Z"/><path d="M22.9,56.1a1.5,1.5,0,0,1-1.5-1.43c0-1,0-1.61,0-1.61a1.5,1.5,0,0,1,3,.08s0,.55,0,1.4A1.5,1.5,0,0,1,23,56.1Z"/><text x="0" y="115" fill="#000000" font-size="5px" font-weight="bold" font-family="'Helvetica Neue', Helvetica, Arial-Unicode, Arial, Sans-serif">Created by MeritArt</text><text x="0" y="120" fill="#000000" font-size="5px" font-weight="bold" font-family="'Helvetica Neue', Helvetica, Arial-Unicode, Arial, Sans-serif">from the Noun Project</text></svg>